# xmcd
#
# Track frame offsets:
#   150
#   14850
#   26841
#   37944
#   51496
#   64843
#   79158
#   92386
#   106015
#   121153
#   128752
#   142015
#   156259
#   170699
#   184337
#   197431
#
# Disc length: 2829 seconds
#
# Revision: 0
# Processed by: cddbd v1.5.1PL2 Copyright (c) Steve Scherf et al.
# Submitted via: GXTranscoder 2.0.1939
#
DISCID=db0b0b10
DTITLE=Nat King Cole - Baby, Baby all the Time
DYEAR=1900
DGENRE=Blues
TTITLE0=Please Consider Me
TTITLE1=STOP! The Red Lights On
TTITLE2=Jumpin' At The Capitol
TTITLE3=My Old Flame
TTITLE4=I'm in the Mood For Love
TTITLE5=Easy Listening Blues
TTITLE6=I'm Thru With Love
TTITLE7=Baby, Baby all the Time
TTITLE8=Hit the Ramp
TTITLE9=A Pile O'Cole
TTITLE10=Any Old Time
TTITLE11=Sweet Lorraine
TTITLE12=Stormy Weather
TTITLE13=Could- 'Ja
TTITLE14=I'm a Shy Guy
TTITLE15=Rex Rhumba
EXTD=
EXTT0=
EXTT1=
EXTT2=
EXTT3=
EXTT4=
EXTT5=
EXTT6=
EXTT7=
EXTT8=
EXTT9=
EXTT10=
EXTT11=
EXTT12=
EXTT13=
EXTT14=
EXTT15=
PLAYORDER=
